# xmcd CD database file
#
# Track frame offsets:
#	182
#	15002
#	31885
#	47900
#	63030
#	79295
#	95837
#	110735
#	126180
#	144935
#	162020
#	174695
#	192627
#	211415
#	225682
#	240362
#	252555
#	271107
#
# Disc length: 3829 seconds
#
# Revision: 1
# Processed by: cddbd v1.5.1PL0 Copyright (c) Steve Scherf et al.
# Submitted via: CDex 1.51
#
DISCID=f30ef312
DTITLE=Various Artist - Gefühle - Vol.10 - Die schönsten romantischen Schlager
DYEAR=1900
DGENRE=Oldies
TTITLE0=Roland Kaiser - Amore mio
TTITLE1=Milva - Zusammenleben
TTITLE2=Howard Carpendale - Wie frei willst du sein?
TTITLE3=Reiner Schöne - Werd ich noch jung sein, wenn ich älter bin
TTITLE4=Severine - Du gehst vorbei
TTITLE5=Peter Rubin - Dieses Lied soll dich streicheln
TTITLE6=Gitte - Von Hollywood träumen
TTITLE7=Cindy and Bert - Darling
TTITLE8=Karel Gott - Das Mädchen aus Athen
TTITLE9=Udo Jürgens - Ich schrieb nie ein Lied für Karin
TTITLE10=Peter Orloff - Königin der Nacht
TTITLE11=Bino - Mama Leone
TTITLE12=Katja Ebstein - Abschied ist ein bisschen wie sterben
TTITLE13=Volker Lechtenbrink - Meine Tür steht immer offen
TTITLE14=Ingrid Peters - Du bist nicht frei
TTITLE15=Willem - Sie (ist, wie Mädchen wohl sind)
TTITLE16=Paola - Wie du
TTITLE17=Roy Blac - Heute Abend feiern wir ein Fest
EXTD=
EXTT0=
EXTT1=
EXTT2=
EXTT3=
EXTT4=
EXTT5=
EXTT6=
EXTT7=
EXTT8=
EXTT9=
EXTT10=
EXTT11=
EXTT12=
EXTT13=
EXTT14=
EXTT15=
EXTT16=
EXTT17=
PLAYORDER=
